<svg width="420" height="280" viewBox="0 0 420 280" fill="none" xmlns="http://www.w3.org/2000/svg">
  <defs>
    <linearGradient id="bjBg" x1="40" y1="30" x2="360" y2="250" gradientUnits="userSpaceOnUse">
      <stop stop-color="#161F32"/>
      <stop offset="1" stop-color="#0A111D"/>
    </linearGradient>
    <radialGradient id="bjGlow" cx="0" cy="0" r="1" gradientUnits="userSpaceOnUse" gradientTransform="translate(220 70) scale(210 130)">
      <stop stop-color="#2EF1C3" stop-opacity="0.32"/>
      <stop offset="1" stop-color="#2EF1C3" stop-opacity="0"/>
    </radialGradient>
    <linearGradient id="cardFace" x1="0" y1="0" x2="1" y2="1">
      <stop stop-color="#18263A"/>
      <stop offset="1" stop-color="#0F1625"/>
    </linearGradient>
    <linearGradient id="cardEdge" x1="0" y1="0" x2="1" y2="1">
      <stop stop-color="#24F1BC" stop-opacity="0.7"/>
      <stop offset="1" stop-color="#0FD490" stop-opacity="0.4"/>
    </linearGradient>
  </defs>
  <rect x="20" y="20" width="380" height="240" rx="32" fill="url(#bjBg)"/>
  <rect x="20" y="20" width="380" height="240" rx="32" stroke="#20E9B4" stroke-opacity="0.18" stroke-width="2"/>
  <rect x="20" y="20" width="380" height="240" rx="32" fill="url(#bjGlow)"/>
  <g transform="translate(140 60) rotate(-8)">
    <rect width="150" height="210" rx="18" fill="#101929" stroke="url(#cardEdge)" stroke-width="3"/>
    <rect x="12" y="18" width="126" height="174" rx="14" fill="url(#cardFace)"/>
    <path d="M48 60 C68 40 92 48 98 70 C105 92 92 110 70 128 C54 140 48 150 48 164" stroke="#21F0AE" stroke-width="8" stroke-linecap="round" stroke-linejoin="round" fill="none"/>
    <circle cx="86" cy="78" r="10" fill="#21F0AE"/>
    <circle cx="64" cy="144" r="10" fill="#21F0AE"/>
  </g>
  <g transform="translate(210 58) rotate(12)">
    <rect width="150" height="210" rx="18" fill="#101929" stroke="url(#cardEdge)" stroke-width="3"/>
    <rect x="12" y="18" width="126" height="174" rx="14" fill="url(#cardFace)"/>
    <path d="M60 72 L75 48 L90 72" stroke="#FF5F7A" stroke-width="8" stroke-linecap="round" stroke-linejoin="round"/>
    <path d="M60 128 C60 108 90 108 90 128 C90 142 74 154 74 154 C74 154 60 142 60 128Z" fill="#FF5F7A"/>
  </g>
  <circle cx="210" cy="228" r="20" fill="#21F0AE" fill-opacity="0.35"/>
  <rect x="150" y="220" width="120" height="12" rx="6" fill="#21F0AE" fill-opacity="0.22"/>
</svg>
