<svg width="420" height="280" viewBox="0 0 420 280" fill="none" xmlns="http://www.w3.org/2000/svg">
  <defs>
    <linearGradient id="diceBg" x1="50" y1="30" x2="360" y2="250" gradientUnits="userSpaceOnUse">
      <stop stop-color="#132032"/>
      <stop offset="1" stop-color="#0B121F"/>
    </linearGradient>
    <linearGradient id="diceEdge" x1="0" y1="0" x2="1" y2="1">
      <stop stop-color="#25F3C0" stop-opacity="0.85"/>
      <stop offset="1" stop-color="#00D084" stop-opacity="0.55"/>
    </linearGradient>
    <radialGradient id="diceGlow" cx="0" cy="0" r="1" gradientUnits="userSpaceOnUse" gradientTransform="translate(210 70) rotate(60) scale(210 130)">
      <stop stop-color="#1AEAA9" stop-opacity="0.35"/>
      <stop offset="1" stop-color="#1AEAA9" stop-opacity="0"/>
    </radialGradient>
  </defs>
  <rect x="20" y="20" width="380" height="240" rx="32" fill="url(#diceBg)"/>
  <rect x="20" y="20" width="380" height="240" rx="32" stroke="#1AF2B5" stroke-opacity="0.18" stroke-width="2"/>
  <rect x="20" y="20" width="380" height="240" rx="32" fill="url(#diceGlow)"/>
  <g transform="translate(90 70)">
    <rect width="150" height="150" rx="26" fill="#121C2C" stroke="url(#diceEdge)" stroke-width="3"/>
    <circle cx="45" cy="45" r="16" fill="#21F0AE"/>
    <circle cx="105" cy="105" r="16" fill="#21F0AE"/>
    <circle cx="105" cy="45" r="16" fill="#21F0AE"/>
    <circle cx="45" cy="105" r="16" fill="#21F0AE"/>
    <circle cx="75" cy="75" r="8" fill="#1A302F" fill-opacity="0.4"/>
  </g>
  <g transform="translate(196 38) rotate(12)">
    <rect width="140" height="140" rx="24" fill="#0F1A29" stroke="url(#diceEdge)" stroke-width="3"/>
    <circle cx="45" cy="45" r="14" fill="#21F0AE"/>
    <circle cx="95" cy="95" r="14" fill="#21F0AE"/>
    <circle cx="95" cy="45" r="14" fill="#21F0AE"/>
    <circle cx="45" cy="95" r="14" fill="#21F0AE"/>
    <circle cx="70" cy="70" r="14" fill="#21F0AE"/>
  </g>
  <path d="M120 220 C170 236 250 236 300 220" stroke="#22F2B8" stroke-width="6" stroke-linecap="round" stroke-opacity="0.35"/>
</svg>
