<svg width="64" height="64" viewBox="0 0 64 64" fill="none" xmlns="http://www.w3.org/2000/svg">
  <defs>
    <linearGradient id="slotBody" x1="8" y1="6" x2="56" y2="58" gradientUnits="userSpaceOnUse">
      <stop stop-color="#1E2740"/>
      <stop offset="1" stop-color="#0E1522"/>
    </linearGradient>
    <linearGradient id="slotAccent" x1="14" y1="14" x2="50" y2="38" gradientUnits="userSpaceOnUse">
      <stop stop-color="#132436"/>
      <stop offset="1" stop-color="#1A2F47"/>
    </linearGradient>
    <linearGradient id="slotGlow" x1="12" y1="44" x2="52" y2="54" gradientUnits="userSpaceOnUse">
      <stop stop-color="#00D084" stop-opacity="0.9"/>
      <stop offset="1" stop-color="#34F3C2" stop-opacity="0.7"/>
    </linearGradient>
    <radialGradient id="slotHighlight" cx="0" cy="0" r="1" gradientUnits="userSpaceOnUse" gradientTransform="translate(20 18) rotate(40) scale(26 20)">
      <stop stop-color="#ffffff" stop-opacity="0.45"/>
      <stop offset="1" stop-color="#ffffff" stop-opacity="0"/>
    </radialGradient>
  </defs>
  <rect x="6" y="6" width="52" height="52" rx="14" fill="url(#slotBody)"/>
  <rect x="6" y="6" width="52" height="52" rx="14" stroke="#0AE09E" stroke-opacity="0.25" stroke-width="2"/>
  <rect x="12" y="14" width="40" height="24" rx="8" fill="url(#slotAccent)"/>
  <rect x="12" y="14" width="40" height="24" rx="8" fill="url(#slotHighlight)"/>
  <g opacity="0.16">
    <rect x="12" y="40" width="40" height="8" rx="4" fill="#00D084"/>
  </g>
  <rect x="16" y="20" width="8" height="12" rx="4" fill="#0AE09E"/>
  <rect x="28" y="20" width="8" height="12" rx="4" fill="#0AE09E"/>
  <rect x="40" y="20" width="8" height="12" rx="4" fill="#0AE09E"/>
  <rect x="16" y="20" width="8" height="12" rx="4" stroke="#0F1D2D" stroke-width="1" stroke-opacity="0.35"/>
  <rect x="28" y="20" width="8" height="12" rx="4" stroke="#0F1D2D" stroke-width="1" stroke-opacity="0.35"/>
  <rect x="40" y="20" width="8" height="12" rx="4" stroke="#0F1D2D" stroke-width="1" stroke-opacity="0.35"/>
  <path d="M50 30C52.2091 30 54 31.7909 54 34C54 36.2091 52.2091 38 50 38" stroke="#18F0B2" stroke-width="3" stroke-linecap="round"/>
  <circle cx="50" cy="14" r="5" fill="#152538" stroke="#23EAAE" stroke-width="2"/>
  <circle cx="50" cy="14" r="2" fill="#23EAAE"/>
  <rect x="20" y="44" width="24" height="6" rx="3" fill="url(#slotGlow)"/>
</svg>
