<svg width="400" height="400" viewBox="0 0 400 400" fill="none" xmlns="http://www.w3.org/2000/svg">
  <defs>
    <linearGradient id="minesBg" x1="80" y1="60" x2="320" y2="340" gradientUnits="userSpaceOnUse">
      <stop stop-color="#1B1F36"/>
      <stop offset="1" stop-color="#262B48"/>
    </linearGradient>
    <radialGradient id="spark" cx="0.5" cy="0.5" r="0.6">
      <stop stop-color="#FF6B6B" stop-opacity="0.9"/>
      <stop offset="1" stop-color="#FF6B6B" stop-opacity="0"/>
    </radialGradient>
  </defs>
  <rect x="40" y="35" width="320" height="330" rx="32" fill="url(#minesBg)"/>
  <rect x="40" y="35" width="320" height="330" rx="32" stroke="#FF6B6B" stroke-opacity="0.18" stroke-width="4"/>
  <g opacity="0.4">
    <circle cx="110" cy="120" r="70" fill="url(#spark)"/>
    <circle cx="280" cy="160" r="60" fill="url(#spark)"/>
    <circle cx="210" cy="260" r="80" fill="url(#spark)"/>
  </g>
  <g stroke="#FF6B6B" stroke-width="8" stroke-linecap="round">
    <line x1="120" y1="220" x2="170" y2="270"/>
    <line x1="170" y1="220" x2="120" y2="270"/>
  </g>
  <g fill="#00D084">
    <rect x="90" y="110" width="35" height="35" rx="8"/>
    <rect x="140" y="160" width="35" height="35" rx="8"/>
    <rect x="190" y="210" width="35" height="35" rx="8"/>
    <rect x="240" y="160" width="35" height="35" rx="8"/>
    <rect x="290" y="210" width="35" height="35" rx="8"/>
  </g>
  <circle cx="225" cy="130" r="44" fill="#1F2A44" stroke="#FF6B6B" stroke-width="6"/>
  <rect x="185" y="120" width="80" height="20" rx="10" fill="#FF6B6B"/>
</svg>
