<svg width="420" height="280" viewBox="0 0 420 280" fill="none" xmlns="http://www.w3.org/2000/svg">
  <defs>
    <linearGradient id="minesBg" x1="36" y1="30" x2="360" y2="250" gradientUnits="userSpaceOnUse">
      <stop stop-color="#101A29"/>
      <stop offset="1" stop-color="#070E18"/>
    </linearGradient>
    <radialGradient id="minesGlow" cx="0" cy="0" r="1" gradientUnits="userSpaceOnUse" gradientTransform="translate(210 90) scale(210 150)">
      <stop stop-color="#28F0BD" stop-opacity="0.32"/>
      <stop offset="1" stop-color="#28F0BD" stop-opacity="0"/>
    </radialGradient>
    <linearGradient id="tileEdge" x1="0" y1="0" x2="1" y2="1">
      <stop stop-color="#23EAAF" stop-opacity="0.7"/>
      <stop offset="1" stop-color="#0FD993" stop-opacity="0.3"/>
    </linearGradient>
    <radialGradient id="gemGlow" cx="0" cy="0" r="1" gradientUnits="userSpaceOnUse" gradientTransform="translate(0 0) scale(1)">
      <stop stop-color="#2DF2C0" stop-opacity="0.9"/>
      <stop offset="1" stop-color="#2DF2C0" stop-opacity="0"/>
    </radialGradient>
  </defs>
  <rect x="20" y="20" width="380" height="240" rx="32" fill="url(#minesBg)"/>
  <rect x="20" y="20" width="380" height="240" rx="32" stroke="#1FE9B4" stroke-opacity="0.16" stroke-width="2"/>
  <rect x="20" y="20" width="380" height="240" rx="32" fill="url(#minesGlow)"/>
  <g transform="translate(90 54)">
    <rect x="0" y="0" width="240" height="200" rx="22" fill="#0C1421" stroke="#1FE9B4" stroke-opacity="0.3" stroke-width="2"/>
    <g transform="translate(22 22)">
      <g>
        <rect x="0" y="0" width="56" height="56" rx="12" fill="#111C2A" stroke="url(#tileEdge)" stroke-width="2"/>
        <rect x="66" y="0" width="56" height="56" rx="12" fill="#111C2A" stroke="url(#tileEdge)" stroke-width="2"/>
        <rect x="132" y="0" width="56" height="56" rx="12" fill="#111C2A" stroke="url(#tileEdge)" stroke-width="2"/>
      </g>
      <g transform="translate(0 66)">
        <rect x="0" y="0" width="56" height="56" rx="12" fill="#111C2A" stroke="url(#tileEdge)" stroke-width="2"/>
        <rect x="66" y="0" width="56" height="56" rx="12" fill="#111C2A" stroke="url(#tileEdge)" stroke-width="2"/>
        <rect x="132" y="0" width="56" height="56" rx="12" fill="#111C2A" stroke="url(#tileEdge)" stroke-width="2"/>
      </g>
      <g transform="translate(0 132)">
        <rect x="0" y="0" width="56" height="56" rx="12" fill="#111C2A" stroke="url(#tileEdge)" stroke-width="2"/>
        <rect x="66" y="0" width="56" height="56" rx="12" fill="#111C2A" stroke="url(#tileEdge)" stroke-width="2"/>
        <rect x="132" y="0" width="56" height="56" rx="12" fill="#111C2A" stroke="url(#tileEdge)" stroke-width="2"/>
      </g>
      <g transform="translate(66 66)">
        <rect x="0" y="0" width="56" height="56" rx="12" fill="#142437" stroke="#FF5F7A" stroke-width="2"/>
        <path d="M28 16 L40 40 H16 L28 16Z" fill="#FF5F7A"/>
        <circle cx="28" cy="28" r="26" stroke="#FF5F7A" stroke-opacity="0.25" stroke-width="2"/>
      </g>
      <g transform="translate(132 0)">
        <rect x="0" y="0" width="56" height="56" rx="12" fill="#132235" stroke="#23F0B5" stroke-width="2"/>
        <path d="M28 14 L38 24 L34 40 H22 L18 24 L28 14Z" fill="#2DF2C0"/>
        <circle cx="28" cy="28" r="24" fill="#2DF2C0" fill-opacity="0.18"/>
      </g>
      <g transform="translate(0 132)">
        <rect x="0" y="0" width="56" height="56" rx="12" fill="#132235" stroke="#23F0B5" stroke-width="2"/>
        <path d="M28 14 L38 24 L34 40 H22 L18 24 L28 14Z" fill="#2DF2C0"/>
        <circle cx="28" cy="28" r="24" fill="#2DF2C0" fill-opacity="0.18"/>
      </g>
    </g>
  </g>
  <path d="M130 222 C170 238 250 238 290 222" stroke="#24EFB9" stroke-width="6" stroke-linecap="round" stroke-opacity="0.3"/>
</svg>
