<svg width="420" height="280" viewBox="0 0 420 280" fill="none" xmlns="http://www.w3.org/2000/svg">
  <defs>
    <linearGradient id="plinkoBg" x1="30" y1="30" x2="360" y2="260" gradientUnits="userSpaceOnUse">
      <stop stop-color="#142033"/>
      <stop offset="1" stop-color="#0A111D"/>
    </linearGradient>
    <radialGradient id="plinkoGlow" cx="0" cy="0" r="1" gradientUnits="userSpaceOnUse" gradientTransform="translate(210 70) scale(200 140)">
      <stop stop-color="#31F3C2" stop-opacity="0.38"/>
      <stop offset="1" stop-color="#31F3C2" stop-opacity="0"/>
    </radialGradient>
    <linearGradient id="plinkoPins" x1="0" y1="0" x2="1" y2="1">
      <stop stop-color="#23E5B0"/>
      <stop offset="1" stop-color="#0AD084"/>
    </linearGradient>
  </defs>
  <rect x="20" y="20" width="380" height="240" rx="32" fill="url(#plinkoBg)"/>
  <rect x="20" y="20" width="380" height="240" rx="32" stroke="#23E5B0" stroke-opacity="0.16" stroke-width="2"/>
  <rect x="20" y="20" width="380" height="240" rx="32" fill="url(#plinkoGlow)"/>
  <g transform="translate(90 48)">
    <rect x="0" y="0" width="240" height="200" rx="26" fill="#101B29" stroke="#1EF1B6" stroke-opacity="0.35" stroke-width="2"/>
    <path d="M120 14 L120 186" stroke="#1EF1B6" stroke-opacity="0.25" stroke-width="3" stroke-dasharray="6 12"/>
    <g fill="url(#plinkoPins)">
      <circle cx="40" cy="44" r="6"/>
      <circle cx="120" cy="44" r="6"/>
      <circle cx="200" cy="44" r="6"/>
      <circle cx="80" cy="76" r="6"/>
      <circle cx="160" cy="76" r="6"/>
      <circle cx="40" cy="108" r="6"/>
      <circle cx="120" cy="108" r="6"/>
      <circle cx="200" cy="108" r="6"/>
      <circle cx="80" cy="140" r="6"/>
      <circle cx="160" cy="140" r="6"/>
      <circle cx="120" cy="172" r="6"/>
    </g>
    <path d="M120 40 C155 78 180 110 196 146 C205 166 205 184 194 194" stroke="#2FF5C6" stroke-width="4" stroke-linecap="round"/>
    <circle cx="190" cy="190" r="14" fill="#2FF5C6"/>
  </g>
  <rect x="120" y="220" width="180" height="14" rx="7" fill="#2CF2C2" fill-opacity="0.35"/>
</svg>
